<?xml version="1.0" standalone="no"?>
<!DOCTYPE svg PUBLIC "-//W3C//DTD SVG 20010904//EN"
 "http://www.w3.org/TR/2001/REC-SVG-20010904/DTD/svg10.dtd">
<svg version="1.0" xmlns="http://www.w3.org/2000/svg"
 width="500.000000pt" height="500.000000pt" viewBox="0 0 500.000000 500.000000"
 preserveAspectRatio="xMidYMid meet">

<g transform="translate(0.000000,500.000000) scale(0.100000,-0.100000)"
fill="#000000" stroke="none">
<path d="M0 2500 l0 -2500 2500 0 2500 0 0 2500 0 2500 -2500 0 -2500 0 0
-2500z m1892 918 c-14 -14 -16 -38 -3 -38 5 0 11 8 13 18 3 12 7 8 15 -15 11
-31 11 -32 -8 -20 -15 9 -23 9 -38 0 -19 -12 -19 -11 -4 25 20 48 24 54 31 47
3 -3 0 -11 -6 -17z m176 -61 c12 -3 11 -5 -5 -6 -21 -1 -23 3 -21 47 l1 47 4
-42 c3 -29 9 -43 21 -46z m176 67 c9 -8 16 -22 16 -29 0 -20 -28 -45 -51 -45
-16 0 -19 7 -19 45 0 38 3 45 19 45 11 0 27 -7 35 -16z m158 -6 c-14 -14 -16
-38 -3 -38 5 0 11 8 13 18 3 12 7 8 15 -15 11 -31 11 -32 -8 -20 -15 9 -23 9
-38 0 -19 -12 -19 -11 -4 25 20 48 24 54 31 47 3 -3 0 -11 -6 -17z m303 5 c4
9 12 17 18 17 5 0 3 -8 -6 -18 -10 -10 -17 -22 -17 -27 0 -5 7 -17 17 -27 9
-10 11 -18 6 -18 -6 0 -14 8 -18 18 -7 16 -8 15 -15 -3 -6 -14 -9 -6 -9 30 0
36 3 44 9 30 7 -18 8 -19 15 -2z m203 5 c17 -17 15 -53 -3 -68 -20 -17 -62 -5
-70 20 -14 44 41 80 73 48z m160 -71 c12 -3 11 -5 -5 -6 -21 -1 -23 3 -21 47
l1 47 4 -42 c3 -29 9 -43 21 -46z m167 47 c8 -20 15 -42 14 -48 0 -7 -2 -6 -6
2 -6 15 -53 16 -53 0 0 -6 -2 -9 -5 -6 -6 5 24 88 31 88 2 0 11 -16 19 -36z
m-1161 -876 c258 -682 264 -694 340 -728 l41 -19 -215 1 c-198 0 -211 1 -162
13 132 32 133 80 11 403 l-84 223 -6 -148 c-5 -94 -13 -168 -24 -203 -60 -196
-195 -310 -366 -312 -155 -1 -251 109 -236 272 11 123 93 218 312 364 78 51
153 108 169 126 33 40 31 74 -3 78 -20 3 -38 -10 -87 -63 -47 -50 -67 -66 -84
-63 -51 7 -48 26 32 240 127 337 139 368 147 368 4 0 101 -249 215 -552z m756
522 c0 -5 -9 -10 -21 -10 -36 0 -57 -19 -76 -67 -17 -44 -18 -87 -18 -558 0
-585 -1 -575 75 -612 l45 -22 -173 -1 c-113 0 -171 3 -167 10 3 5 14 10 24 10
28 0 59 42 71 96 7 33 10 220 8 555 -3 486 -4 505 -23 539 -13 22 -32 38 -53
45 -18 5 -32 13 -32 17 0 4 77 8 170 8 107 0 170 -4 170 -10z m540 -22 c14
-24 20 -51 20 -95 0 -184 -128 -308 -438 -424 -149 -57 -172 -68 -172 -90 0
-24 31 -43 105 -64 71 -20 141 -54 183 -90 17 -14 74 -90 126 -170 106 -159
189 -255 239 -277 17 -8 43 -20 57 -26 20 -9 5 -11 -82 -11 -100 -1 -108 1
-137 24 -16 15 -91 117 -164 228 -143 215 -165 240 -266 309 -35 23 -69 50
-74 59 -20 32 17 64 153 134 210 108 290 177 331 285 25 66 25 154 0 203 l-19
37 59 0 c56 0 60 -2 79 -32z"/>
<path d="M2200 3396 c0 -39 18 -48 41 -20 15 18 2 47 -25 52 -12 3 -16 -4 -16
-32z"/>
<path d="M2850 3415 c-18 -22 -1 -50 31 -50 20 0 24 5 24 30 0 23 -5 31 -21
33 -11 2 -27 -4 -34 -13z"/>
<path d="M3206 3405 c-9 -23 -8 -25 9 -25 17 0 19 9 6 28 -7 11 -10 10 -15 -3z"/>
<path d="M1732 2725 c-40 -107 -72 -205 -70 -217 6 -39 29 -31 87 30 67 72 93
87 121 72 28 -15 26 -68 -3 -111 -12 -19 -70 -68 -127 -109 -208 -147 -266
-234 -258 -377 8 -127 76 -193 198 -193 131 0 228 96 285 281 22 72 31 257 16
344 -11 64 -159 475 -171 475 -3 0 -38 -88 -78 -195z"/>
</g>
</svg>
