<svg xmlns:xlink="http://www.w3.org/1999/xlink" xmlns="http://www.w3.org/2000/svg" id="Layer_1" data-name="Layer 1" viewBox="0 0 18 18" width="118"  height="36" ><title>arrow-icon</title><g id="Home"><g id="Home-2"><g id="Group-21"><g id="Group-25"><g id="Group-36"><g id="Group-23"><path id="Path" d="M18,9a.91.91,0,0,0-.23-.59L10.06.27a.85.85,0,0,0-1.2,0h0a.88.88,0,0,0,0,1.21l6.34,6.69H.86a.86.86,0,0,0,0,1.72H15.15L8.81,16.55a.92.92,0,0,0,0,1.22.86.86,0,0,0,1.21,0l7.71-8.14A.73.73,0,0,0,18,9Z" transform="translate(0 -0.02)" fill="#f7f7f2" fill-rule="evenodd"/></g></g></g></g></g></g></svg>