<?xml version="1.0" encoding="UTF-8" standalone="no"?>
<svg
   version="1.0"
   width="500.000000pt"
   height="500.000000pt"
   viewBox="0 0 500.000000 500.000000"
   preserveAspectRatio="xMidYMid meet"
   id="svg26"
   sodipodi:docname="ff28eaf5bafbbf3c2734260a89a56e4d.svg"
   xmlns:inkscape="http://www.inkscape.org/namespaces/inkscape"
   xmlns:sodipodi="http://sodipodi.sourceforge.net/DTD/sodipodi-0.dtd"
   xmlns="http://www.w3.org/2000/svg"
   xmlns:svg="http://www.w3.org/2000/svg">
  <defs
     id="defs30" />
  <sodipodi:namedview
     id="namedview28"
     pagecolor="#ffffff"
     bordercolor="#666666"
     borderopacity="1.0"
     inkscape:pageshadow="2"
     inkscape:pageopacity="0.0"
     inkscape:pagecheckerboard="0"
     inkscape:document-units="pt" />
  <g
     transform="translate(0.000000,500.000000) scale(0.100000,-0.100000)"
     fill="#000000"
     stroke="none"
     id="g24">
    <path
       d="M1887 3433 c-3 -4 -12 -25 -20 -45 -15 -36 -15 -37 4 -25 15 9 23 9 38 0 19 -12 19 -11 8 20 -8 23 -12 27 -15 15 -2 -10 -8 -18 -13 -18 -13 0 -11 24 3 38 6 6 9 14 6 17 -3 4 -8 3 -11 -2z"
       id="path2" />
    <path
       d="M2042 3398 c-2 -44 0 -48 21 -47 16 1 17 3 5 6 -12 3 -18 17 -21 46 l-4 42 -1 -47z"
       id="path4" />
    <path
       d="M2190 3395 c0 -38 3 -45 19 -45 23 0 51 25 51 45 0 20 -28 45 -51 45 -16 0 -19 -7 -19 -45z m53 13 c8 -12 7 -21 -2 -32 -23 -28 -41 -19 -41 20 0 28 4 35 16 32 9 -2 22 -10 27 -20z"
       id="path6" />
    <path
       d="M2397 3433 c-3 -4 -12 -25 -20 -45 -15 -36 -15 -37 4 -25 15 9 23 9 38 0 19 -12 19 -11 8 20 -8 23 -12 27 -15 15 -2 -10 -8 -18 -13 -18 -13 0 -11 24 3 38 6 6 9 14 6 17 -3 4 -8 3 -11 -2z"
       id="path8" />
    <path
       d="M2681 3395 c0 -36 3 -44 9 -30 7 18 8 19 15 3 4 -10 12 -18 18 -18 5 0 3 8 -6 18 -10 10 -17 22 -17 27 0 5 7 17 17 27 9 10 11 18 6 18 -6 0 -14 -8 -18 -17 -7 -17 -8 -16 -15 2 -6 14 -9 6 -9 -30z"
       id="path10" />
    <path
       d="M2840 3420 c-15 -29 -3 -59 26 -66 30 -8 54 11 54 40 0 46 -59 64 -80 26z m65 -25 c0 -25 -4 -30 -24 -30 -32 0 -49 28 -31 50 7 9 23 15 34 13 16 -2 21 -10 21 -33z"
       id="path12" />
    <path
       d="M3042 3398 c-2 -44 0 -48 21 -47 16 1 17 3 5 6 -12 3 -18 17 -21 46 l-4 42 -1 -47z"
       id="path14" />
    <path
       d="M3196 3399 c-9 -23 -14 -44 -11 -47 3 -3 5 0 5 6 0 16 47 15 53 0 4 -8 6 -9 6 -2 1 13 -27 84 -33 84 -2 0 -11 -19 -20 -41z m34 -11 c0 -5 -7 -8 -15 -8 -17 0 -18 2 -9 25 5 13 8 14 15 3 5 -7 9 -16 9 -20z"
       id="path16" />
    <path
       d="M1816 2885 c-88 -234 -105 -288 -96 -305 19 -36 51 -24 115 46 49 52 67 65 86 62 17 -2 25 -10 27 -28 4 -35 -44 -79 -209 -189 -204 -135 -283 -231 -296 -354 -9 -91 24 -170 97 -228 96 -77 287 -45 396 67 90 93 136 237 138 431 1 67 2 120 3 119 1 -1 39 -98 83 -215 90 -236 105 -294 89 -341 -13 -35 -34 -48 -104 -65 -45 -11 -26 -13 165 -13 l215 -1 -42 20 c-76 37 -68 20 -346 754 -102 270 -189 498 -192 508 -4 9 -10 17 -14 17 -4 0 -56 -128 -115 -285z m211 -245 c35 -99 44 -299 19 -412 -33 -147 -99 -248 -191 -293 -47 -23 -65 -27 -119 -23 -83 5 -127 34 -163 106 -22 45 -25 62 -21 120 9 125 62 198 229 319 147 106 179 140 179 192 0 44 -19 66 -51 56 -11 -4 -49 -36 -84 -72 -63 -65 -87 -74 -93 -37 -1 10 23 87 54 169 31 83 65 174 76 204 l21 54 58 -154 c33 -85 71 -188 86 -229z"
       id="path18" />
    <path
       d="M2560 3142 c0 -4 14 -12 32 -17 53 -17 69 -50 79 -166 11 -134 11 -764 0 -894 -11 -123 -23 -152 -76 -176 l-40 -18 175 0 175 0 -40 18 c-52 23 -65 53 -76 171 -11 123 -11 764 0 899 10 116 26 149 79 166 18 5 32 13 32 17 0 4 -76 8 -170 8 -93 0 -170 -4 -170 -8z"
       id="path20" />
    <path
       d="M3310 3145 c0 -4 7 -20 16 -37 28 -54 21 -149 -16 -224 -45 -93 -122 -157 -288 -242 -157 -81 -184 -102 -180 -140 2 -20 18 -37 66 -68 100 -66 135 -106 278 -321 73 -111 146 -211 160 -222 24 -19 40 -21 138 -20 l111 0 -55 21 c-77 30 -145 103 -267 284 -56 83 -116 164 -134 178 -42 35 -108 68 -194 96 -142 46 -132 70 58 140 262 97 375 177 434 306 31 68 35 172 9 222 -16 31 -19 32 -76 32 -33 0 -60 -2 -60 -5z"
       id="path22" />
  </g>
</svg>
