<?xml version="1.0" encoding="UTF-8" standalone="no"?>
<svg
   id="body_1"
   width="667"
   height="667"
   version="1.1"
   sodipodi:docname="170f1ed7ae3e086309d3ce93f0a02ff5.svg"
   xmlns:inkscape="http://www.inkscape.org/namespaces/inkscape"
   xmlns:sodipodi="http://sodipodi.sourceforge.net/DTD/sodipodi-0.dtd"
   xmlns="http://www.w3.org/2000/svg"
   xmlns:svg="http://www.w3.org/2000/svg">
  <defs
     id="defs19" />
  <sodipodi:namedview
     id="namedview17"
     pagecolor="#ffffff"
     bordercolor="#666666"
     borderopacity="1.0"
     inkscape:pageshadow="2"
     inkscape:pageopacity="0.0"
     inkscape:pagecheckerboard="0" />
  <g
     transform="matrix(1.334 0 0 1.334 0 0)"
     id="g14">
    <g
       transform="matrix(0.1 0 -0 -0.1 0 500)"
       id="g12">
      <path
         d="M0 2500L0 0L2500 0L5000 0L5000 2500L5000 5000L2500 5000L0 5000L0 2500zM1892 3418C 1878 3404 1876 3380 1889 3380C 1894 3380 1900 3388 1902 3398C 1905 3410 1909 3406 1917 3383C 1928 3352 1928 3351 1909 3363C 1894 3372 1886 3372 1871 3363C 1852 3351 1852 3352 1867 3388C 1887 3436 1891 3442 1898 3435C 1901 3432 1898 3424 1892 3418zM2068 3357C 2080 3354 2079 3352 2063 3351C 2042 3350 2040 3354 2042 3398L2042 3398L2043 3445L2047 3403C 2050 3374 2056 3360 2068 3357zM2244 3424C 2253 3416 2260 3402 2260 3395C 2260 3375 2232 3350 2209 3350C 2193 3350 2190 3357 2190 3395C 2190 3433 2193 3440 2209 3440C 2220 3440 2236 3433 2244 3424zM2402 3418C 2388 3404 2386 3380 2399 3380C 2404 3380 2410 3388 2412 3398C 2415 3410 2419 3406 2427 3383C 2438 3352 2438 3351 2419 3363C 2404 3372 2396 3372 2381 3363C 2362 3351 2362 3352 2377 3388C 2397 3436 2401 3442 2408 3435C 2411 3432 2408 3424 2402 3418zM2705 3423C 2709 3432 2717 3440 2723 3440C 2728 3440 2726 3432 2717 3422C 2707 3412 2700 3400 2700 3395C 2700 3390 2707 3378 2717 3368C 2726 3358 2728 3350 2723 3350C 2717 3350 2709 3358 2705 3368C 2698 3384 2697 3383 2690 3365C 2684 3351 2681 3359 2681 3395C 2681 3431 2684 3439 2690 3425C 2697 3407 2698 3406 2705 3423zM2908 3428C 2925 3411 2923 3375 2905 3360C 2885 3343 2843 3355 2835 3380C 2821 3424 2876 3460 2908 3428zM3068 3357C 3080 3354 3079 3352 3063 3351C 3042 3350 3040 3354 3042 3398L3042 3398L3043 3445L3047 3403C 3050 3374 3056 3360 3068 3357zM3235 3404C 3243 3384 3250 3362 3249 3356C 3249 3349 3247 3350 3243 3358C 3237 3373 3190 3374 3190 3358C 3190 3352 3188 3349 3185 3352C 3179 3357 3209 3440 3216 3440C 3218 3440 3227 3424 3235 3404zM2394 2658C 2652 1976 2658 1964 2734 1930L2734 1930L2775 1911L2560 1912C 2362 1912 2349 1913 2398 1925C 2530 1957 2531 2005 2409 2328L2409 2328L2325 2551L2319 2403C 2314 2309 2306 2235 2295 2200C 2235 2004 2100 1890 1929 1888C 1774 1887 1678 1997 1693 2160C 1704 2283 1786 2378 2005 2524C 2083 2575 2158 2632 2174 2650C 2207 2690 2205 2724 2171 2728C 2151 2731 2133 2718 2084 2665C 2037 2615 2017 2599 2000 2602C 1949 2609 1952 2628 2032 2842C 2159 3179 2171 3210 2179 3210C 2183 3210 2280 2961 2394 2658zM3150 3180C 3150 3175 3141 3170 3129 3170C 3093 3170 3072 3151 3053 3103C 3036 3059 3035 3016 3035 2545C 3035 1960 3034 1970 3110 1933L3110 1933L3155 1911L2982 1910C 2869 1910 2811 1913 2815 1920C 2818 1925 2829 1930 2839 1930C 2867 1930 2898 1972 2910 2026C 2917 2059 2920 2246 2918 2581C 2915 3067 2914 3086 2895 3120C 2882 3142 2863 3158 2842 3165C 2824 3170 2810 3178 2810 3182C 2810 3186 2887 3190 2980 3190C 3087 3190 3150 3186 3150 3180zM3690 3158C 3704 3134 3710 3107 3710 3063C 3710 2879 3582 2755 3272 2639C 3123 2582 3100 2571 3100 2549C 3100 2525 3131 2506 3205 2485C 3276 2465 3346 2431 3388 2395C 3405 2381 3462 2305 3514 2225C 3620 2066 3703 1970 3753 1948C 3770 1940 3796 1928 3810 1922C 3830 1913 3815 1911 3728 1911C 3628 1910 3620 1912 3591 1935C 3575 1950 3500 2052 3427 2163C 3284 2378 3262 2403 3161 2472C 3126 2495 3092 2522 3087 2531C 3067 2563 3104 2595 3240 2665C 3450 2773 3530 2842 3571 2950C 3596 3016 3596 3104 3571 3153L3571 3153L3552 3190L3611 3190C 3667 3190 3671 3188 3690 3158z"
         stroke="none"
         fill="#000000"
         fill-rule="nonzero"
         id="path2" />
      <path
         d="M2200 3396C 2200 3357 2218 3348 2241 3376C 2256 3394 2243 3423 2216 3428C 2204 3431 2200 3424 2200 3396z"
         stroke="none"
         fill="#000000"
         fill-rule="nonzero"
         id="path4" />
      <path
         d="M2850 3415C 2832 3393 2849 3365 2881 3365C 2901 3365 2905 3370 2905 3395C 2905 3418 2900 3426 2884 3428C 2873 3430 2857 3424 2850 3415z"
         stroke="none"
         fill="#000000"
         fill-rule="nonzero"
         id="path6" />
      <path
         d="M3206 3405C 3197 3382 3198 3380 3215 3380C 3232 3380 3234 3389 3221 3408C 3214 3419 3211 3418 3206 3405z"
         stroke="none"
         fill="#000000"
         fill-rule="nonzero"
         id="path8" />
      <path
         d="M2052 2855C 2012 2748 1980 2650 1982 2638C 1988 2599 2011 2607 2069 2668C 2136 2740 2162 2755 2190 2740C 2218 2725 2216 2672 2187 2629C 2175 2610 2117 2561 2060 2520C 1852 2373 1794 2286 1802 2143C 1810 2016 1878 1950 2000 1950C 2131 1950 2228 2046 2285 2231C 2307 2303 2316 2488 2301 2575C 2290 2639 2142 3050 2130 3050C 2127 3050 2092 2962 2052 2855z"
         stroke="none"
         fill="#000000"
         fill-rule="nonzero"
         id="path10" />
    </g>
  </g>
</svg>
